<svg width="90" height="129" viewBox="0 0 90 129" fill="none" xmlns="http://www.w3.org/2000/svg">
<g id="ep:arrow-up-bold" clip-path="url(#clip0_14_905)">
<path id="Vector" d="M43.6616 108.019C44.5186 106.75 45 105.029 45 103.235C45 101.441 44.5186 99.7205 43.6616 98.4516L21.034 64.9592L43.6616 31.4667C44.4943 30.1906 44.955 28.4814 44.9446 26.7074C44.9342 24.9333 44.4535 23.2363 43.6059 21.9818C42.7584 20.7273 41.6119 20.0157 40.4133 20.0003C39.2147 19.9848 38.06 20.6668 37.1979 21.8993L11.3384 60.1755C10.4814 61.4443 10 63.165 10 64.9592C10 66.7533 10.4814 68.474 11.3384 69.7428L37.1979 108.019C38.0551 109.287 39.2176 110 40.4297 110C41.6419 110 42.8044 109.287 43.6616 108.019Z" fill="#1C2138"/>
</g>
<defs>
<clipPath id="clip0_14_905">
<rect width="129" height="90" fill="white" transform="matrix(0 -1 1 0 0 129)"/>
</clipPath>
</defs>
</svg>
