<svg width="49" height="37" viewBox="0 0 49 37" fill="none" xmlns="http://www.w3.org/2000/svg">
<g id="ep:arrow-up-bold">
<path id="Vector" d="M43.9898 12.24C43.4155 11.8065 42.6367 11.563 41.8246 11.563C41.0126 11.563 40.2337 11.8065 39.6594 12.24L24.5001 23.6869L9.34069 12.24C8.7631 11.8188 7.9895 11.5857 7.18652 11.591C6.38354 11.5963 5.61543 11.8395 5.04762 12.2682C4.4798 12.697 4.15773 13.277 4.15075 13.8833C4.14378 14.4896 4.45246 15.0738 5.01031 15.5099L22.3349 28.5917C22.9092 29.0253 23.688 29.2688 24.5001 29.2688C25.3121 29.2688 26.091 29.0253 26.6653 28.5917L43.9898 15.5099C44.5639 15.0763 44.8865 14.4882 44.8865 13.875C44.8865 13.2618 44.5639 12.6737 43.9898 12.24Z" fill="#1C2138"/>
</g>
</svg>
