<svg width="30" height="70" viewBox="0 0 30 70" fill="none" xmlns="http://www.w3.org/2000/svg">
<path id="Vector" d="M28.8528 68.4592C29.5874 67.4723 30 66.134 30 64.7386C30 63.3431 29.5874 62.0048 28.8528 61.0179L9.4577 34.9682L28.8528 8.91853C29.5665 7.926 29.9615 6.59666 29.9525 5.21684C29.9436 3.83701 29.5315 2.51709 28.8051 1.54137C28.0786 0.565643 27.0959 0.0121918 26.0685 0.000198364C25.0412 -0.011795 24.0514 0.518646 23.3125 1.47726L1.1472 31.2476C0.412647 32.2345 0 33.5728 0 34.9682C0 36.3637 0.412647 37.702 1.1472 38.6889L23.3125 68.4592C24.0472 69.4458 25.0437 70 26.0826 70C27.1216 70 28.118 69.4458 28.8528 68.4592Z" fill="#1C2138"/>
</svg>
