<svg width="30" height="63" viewBox="0 0 30 63" fill="none" xmlns="http://www.w3.org/2000/svg">
<path id="Vector" d="M1.1472 1.37904C0.412647 2.2623 0 3.4601 0 4.70903C0 5.95797 0.412647 7.15577 1.1472 8.03903L20.5423 31.3537L1.1472 54.6684C0.433464 55.5568 0.0385323 56.7465 0.0474586 57.9815C0.0563869 59.2164 0.46846 60.3978 1.19493 61.2711C1.92139 62.1443 2.90413 62.6397 3.93147 62.6504C4.95881 62.6612 5.94855 62.1864 6.68753 61.3284L28.8528 34.6837C29.5874 33.8005 30 32.6027 30 31.3537C30 30.1048 29.5874 28.907 28.8528 28.0237L6.68753 1.37904C5.95276 0.49604 4.95633 0 3.91736 0C2.8784 0 1.88197 0.49604 1.1472 1.37904Z" fill="#1C2138"/>
</svg>
