<svg width="34" height="32" viewBox="0 0 34 32" fill="none" xmlns="http://www.w3.org/2000/svg">
<g id="la:bath">
<path id="Vector" d="M27.625 4C25.2769 4 23.375 5.79 23.375 8H21.25V10H27.625V8H25.5C25.5 6.809 26.3596 6 27.625 6C28.8904 6 29.75 6.809 29.75 8V14H1.0625V16H2.32475L3.95037 23.594V23.625C4.07378 24.1349 4.33387 24.6065 4.70585 24.9949C5.07784 25.3834 5.54932 25.6757 6.07538 25.844L5.3125 28H7.4375L8.1345 26H25.8655L26.5625 28H28.6875L27.9236 25.844C29.036 25.524 29.8998 24.684 30.1484 23.625V23.594L31.6763 16H32.9375V14H31.875V8C31.875 5.79 29.9731 4 27.625 4ZM4.48269 16H29.5503L28.0564 23.219C27.9321 23.652 27.5421 24 26.9939 24H7.106C6.5365 24 6.15081 23.645 6.0435 23.187L4.48269 16Z" fill="#1C2138"/>
</g>
</svg>
