<svg width="35" height="35" viewBox="0 0 35 35" fill="none" xmlns="http://www.w3.org/2000/svg">
<g id="ic:baseline-call">
<path id="Vector" d="M29.1813 22.4292C27.3875 22.4292 25.6521 22.1375 24.0333 21.6125C23.7797 21.5265 23.5071 21.5138 23.2465 21.5757C22.986 21.6376 22.7482 21.7717 22.5604 21.9625L20.2708 24.8354C16.1437 22.8667 12.2792 19.1479 10.2229 14.875L13.0667 12.4542C13.4604 12.0458 13.5771 11.4771 13.4167 10.9667C12.8771 9.34792 12.6 7.6125 12.6 5.81875C12.6 5.03125 11.9438 4.375 11.1563 4.375H6.11042C5.32292 4.375 4.375 4.725 4.375 5.81875C4.375 19.3667 15.6479 30.625 29.1813 30.625C30.2167 30.625 30.625 29.7063 30.625 28.9042V23.8729C30.625 23.0854 29.9688 22.4292 29.1813 22.4292Z" fill="white"/>
</g>
</svg>
