<svg width="32" height="32" viewBox="0 0 32 32" fill="none" xmlns="http://www.w3.org/2000/svg">
<path id="Vector" d="M7.6 6.37846e-09H24.4C25.5205 -6.53915e-05 26.5987 0.502761 27.4149 1.40592C28.231 2.30907 28.7236 3.54451 28.792 4.86023L28.8 5.17647V11.4899C29.6721 11.7812 30.4466 12.382 31.0176 13.2105C31.5886 14.0389 31.9283 15.0545 31.9904 16.1186L32 16.4706V30.5882C31.9999 30.9459 31.8844 31.2902 31.6768 31.5516C31.4693 31.813 31.1851 31.9719 30.8818 31.9963C30.5785 32.0207 30.2786 31.9087 30.0427 31.683C29.8069 31.4572 29.6526 31.1346 29.6112 30.7802L29.6 30.5882V26.3529H2.4V30.5882C2.39999 30.9294 2.29497 31.259 2.10437 31.5161C1.91377 31.7732 1.65049 31.9404 1.3632 31.9868L1.2 32C0.91002 32 0.629853 31.8764 0.411311 31.6522C0.192769 31.428 0.0506372 31.1182 0.0112 30.7802L0 30.5882V16.4706C0 14.1007 1.3536 12.1035 3.2 11.488V5.17647C3.19994 3.85828 3.62735 2.58973 4.39503 1.62956C5.16271 0.669388 6.21283 0.0899412 7.3312 0.00941199L7.6 6.37846e-09ZM27.6 14.1176H4.4C3.90487 14.1174 3.42725 14.3332 3.05957 14.7233C2.6919 15.1135 2.4603 15.6502 2.4096 16.2296L2.4 16.4706V23.5294H29.6V16.4706C29.5998 15.8884 29.4162 15.327 29.0846 14.8948C28.753 14.4626 28.2971 14.1904 27.8048 14.1308L27.6 14.1176ZM24.4 2.82353H7.6C7.10487 2.82326 6.62725 3.03908 6.25957 3.42922C5.8919 3.81936 5.6603 4.35608 5.6096 4.93553L5.6 5.17647V11.2941H8C8 10.7949 8.16857 10.3161 8.46863 9.96309C8.76869 9.61008 9.17565 9.41177 9.6 9.41177H12.8C13.1919 9.41183 13.5701 9.58109 13.863 9.88746C14.1559 10.1938 14.3429 10.616 14.3888 11.0739L14.4 11.2941H17.6C17.6 10.7949 17.7686 10.3161 18.0686 9.96309C18.3687 9.61008 18.7757 9.41177 19.2 9.41177H22.4C22.7919 9.41183 23.1701 9.58109 23.463 9.88746C23.7558 10.1938 23.9429 10.616 23.9888 11.0739L24 11.2941H26.4V5.17647C26.4002 4.59396 26.2168 4.03206 25.8852 3.5995C25.5535 3.16694 25.0973 2.89447 24.6048 2.83482L24.4 2.82353Z" fill="#1C2138"/>
</svg>
