<svg width="35" height="35" viewBox="0 0 35 35" fill="none" xmlns="http://www.w3.org/2000/svg">
<g id="mdi:instagram">
<path id="Vector" d="M11.3751 2.91675H23.6251C28.2917 2.91675 32.0834 6.70841 32.0834 11.3751V23.6251C32.0834 25.8684 31.1923 28.0198 29.606 29.606C28.0198 31.1923 25.8684 32.0834 23.6251 32.0834H11.3751C6.70841 32.0834 2.91675 28.2917 2.91675 23.6251V11.3751C2.91675 9.13179 3.80789 6.98038 5.39414 5.39414C6.98038 3.80789 9.13179 2.91675 11.3751 2.91675ZM11.0834 5.83341C9.69103 5.83341 8.35567 6.38654 7.3711 7.3711C6.38654 8.35567 5.83341 9.69103 5.83341 11.0834V23.9167C5.83341 26.8188 8.18133 29.1667 11.0834 29.1667H23.9167C25.3091 29.1667 26.6445 28.6136 27.6291 27.6291C28.6136 26.6445 29.1667 25.3091 29.1667 23.9167V11.0834C29.1667 8.18133 26.8188 5.83341 23.9167 5.83341H11.0834ZM25.1563 8.02091C25.6398 8.02091 26.1035 8.21297 26.4453 8.55483C26.7872 8.8967 26.9792 9.36036 26.9792 9.84383C26.9792 10.3273 26.7872 10.791 26.4453 11.1328C26.1035 11.4747 25.6398 11.6667 25.1563 11.6667C24.6729 11.6667 24.2092 11.4747 23.8673 11.1328C23.5255 10.791 23.3334 10.3273 23.3334 9.84383C23.3334 9.36036 23.5255 8.8967 23.8673 8.55483C24.2092 8.21297 24.6729 8.02091 25.1563 8.02091ZM17.5001 10.2084C19.434 10.2084 21.2886 10.9766 22.6561 12.3441C24.0235 13.7115 24.7917 15.5662 24.7917 17.5001C24.7917 19.434 24.0235 21.2886 22.6561 22.6561C21.2886 24.0235 19.434 24.7917 17.5001 24.7917C15.5662 24.7917 13.7115 24.0235 12.3441 22.6561C10.9766 21.2886 10.2084 19.434 10.2084 17.5001C10.2084 15.5662 10.9766 13.7115 12.3441 12.3441C13.7115 10.9766 15.5662 10.2084 17.5001 10.2084ZM17.5001 13.1251C16.3398 13.1251 15.227 13.586 14.4065 14.4065C13.586 15.227 13.1251 16.3398 13.1251 17.5001C13.1251 18.6604 13.586 19.7732 14.4065 20.5937C15.227 21.4141 16.3398 21.8751 17.5001 21.8751C18.6604 21.8751 19.7732 21.4141 20.5937 20.5937C21.4141 19.7732 21.8751 18.6604 21.8751 17.5001C21.8751 16.3398 21.4141 15.227 20.5937 14.4065C19.7732 13.586 18.6604 13.1251 17.5001 13.1251Z" fill="#233AA1"/>
</g>
</svg>
