<svg width="35" height="35" viewBox="0 0 35 35" fill="none" xmlns="http://www.w3.org/2000/svg">
<g id="ic:baseline-whatsapp">
<path id="Vector" d="M23.273 3.31916C21.4873 2.57789 19.5719 2.19956 17.6385 2.20623C9.53814 2.20647 2.93686 8.80789 2.93686 16.9083C2.93686 19.4693 3.60098 21.9582 4.84352 24.1609L2.82898 31.5572L2.71527 31.9747L3.13375 31.8647L10.6945 29.8773C12.8234 31.0186 15.2093 31.625 17.6389 31.625C25.7395 31.625 32.341 25.0235 32.341 16.9229C32.341 12.9924 30.8129 9.29768 28.0391 6.52365C26.6788 5.14975 25.0586 4.06041 23.273 3.31916ZM11.0129 26.7436L6.88165 27.8294L7.97803 23.8137L8.00742 23.7061L7.94693 23.6124L7.65707 23.1631C7.65677 23.1627 7.65647 23.1622 7.65618 23.1617C6.48254 21.287 5.85935 19.1201 5.85769 16.9083C5.85769 10.4256 11.1416 5.14165 17.6244 5.14165C20.7662 5.14165 23.7211 6.36934 25.9345 8.59703L25.9355 8.598C27.0313 9.68877 27.8997 10.9862 28.4904 12.4151C29.081 13.8439 29.3822 15.3758 29.3764 16.922L29.3764 16.924C29.405 23.4053 24.1223 28.675 17.6389 28.675C15.526 28.675 13.4555 28.104 11.6418 27.0331C11.6415 27.0329 11.6413 27.0328 11.6411 27.0326L11.2051 26.771L11.1148 26.7168L11.0129 26.7436ZM21.8607 18.529L21.8608 18.5287L21.8482 18.5243C21.689 18.4689 21.4937 18.4026 21.2973 18.4244C21.0741 18.4492 20.8965 18.5775 20.7454 18.7909L20.7453 18.7909L20.7426 18.7948C20.5044 19.1452 19.8285 19.9514 19.6237 20.1854L19.6236 20.1853L19.6189 20.1911C19.5421 20.2843 19.49 20.3048 19.4495 20.3095C19.3972 20.3155 19.3054 20.3018 19.1397 20.2157L19.1398 20.2156L19.1325 20.2121C19.0758 20.1849 19.0028 20.1534 18.9151 20.1156C18.4121 19.899 17.4277 19.475 16.2889 18.4573L16.2887 18.4572C15.2429 17.5245 14.5455 16.3757 14.3262 16.0102C14.2527 15.8776 14.2657 15.8156 14.2776 15.7824C14.2977 15.7265 14.3463 15.669 14.447 15.5684C14.5647 15.4507 14.7084 15.2771 14.8392 15.1191C14.8962 15.0502 14.9507 14.9843 14.9996 14.9273C15.1806 14.7161 15.2679 14.5402 15.3683 14.338C15.378 14.3184 15.3879 14.2986 15.398 14.2785L15.398 14.2785L15.4006 14.2731C15.5631 13.9277 15.4737 13.6376 15.3688 13.4278C15.2873 13.2648 14.5634 11.4996 14.269 10.7634L14.269 10.7634L14.2676 10.7601C14.1101 10.3821 13.9278 10.1653 13.7095 10.0603C13.5426 9.98013 13.3576 9.9802 13.2731 9.98023C13.2572 9.98023 13.2448 9.98024 13.2368 9.9797L13.2285 9.97915H13.2202H12.5202C12.2141 9.97915 11.7639 10.0879 11.3737 10.512L11.3737 10.5119L11.37 10.5161C11.3458 10.5436 11.3176 10.5745 11.2863 10.6088C10.9055 11.0263 10.0535 11.9603 10.0535 13.7C10.0535 14.6459 10.397 15.5619 10.7515 16.2596C11.104 16.9536 11.4784 17.4527 11.5736 17.5795L11.5741 17.5802C11.5815 17.5908 11.5925 17.6069 11.607 17.6281C11.9538 18.1357 14.3156 21.5934 17.8453 23.1166C18.7165 23.5005 19.3967 23.7224 19.9265 23.8843C20.8374 24.1773 21.6671 24.1291 22.311 24.0393L22.3125 24.039C22.7099 23.9811 23.2799 23.7435 23.7825 23.4204C24.2783 23.1017 24.7727 22.6589 24.9476 22.1541C25.1076 21.7115 25.1888 21.3005 25.2162 20.9743C25.2299 20.8112 25.2304 20.6652 25.2192 20.5444C25.2091 20.4357 25.1865 20.3094 25.1269 20.2158C25.0406 20.0801 24.9136 19.9968 24.7892 19.9306C24.7158 19.8915 24.6233 19.8488 24.5239 19.8029C24.4639 19.7752 24.4013 19.7463 24.3388 19.7163C24.2541 19.6756 24.0865 19.5939 23.8761 19.4914C23.2089 19.1664 22.1115 18.6316 21.8607 18.529Z" fill="white" stroke="white" stroke-width="0.5"/>
</g>
</svg>
