<svg width="50" height="50" viewBox="0 0 50 50" fill="none" xmlns="http://www.w3.org/2000/svg">
<g id="ic:baseline-whatsapp">
<path id="Vector" d="M4.5131 45.6591L15.2599 42.8342C18.3092 44.4586 21.7227 45.3214 25.1985 45.3214C36.8496 45.3214 46.3443 35.8267 46.3443 24.1755C46.3443 18.5229 44.1464 13.2085 40.1571 9.21872C38.2006 7.24265 35.8702 5.67585 33.3019 4.6097C30.7335 3.54349 27.9785 2.99931 25.1976 3.00888C13.5469 3.00936 4.05265 12.5039 4.05265 24.1547C4.05265 27.8183 4.99761 31.3792 6.76609 34.5346L3.90356 45.0441L3.67614 45.8791L4.5131 45.6591ZM15.6964 38.067L10.0339 39.5552L11.535 34.0572L11.5938 33.842L11.4728 33.6545L11.058 33.0115C9.3959 30.3562 8.51336 27.2873 8.51099 24.1547C8.51099 14.9725 15.9955 7.48805 25.1777 7.48805C29.6281 7.48805 33.8128 9.22676 36.948 12.3821L36.9499 12.3841C38.5019 13.929 39.7319 15.7666 40.5685 17.7904C41.4051 19.8141 41.8316 21.9838 41.8235 24.1737L41.8235 24.1777C41.8639 33.357 34.3819 40.8214 25.1985 40.8214C22.206 40.8214 19.2736 40.0128 16.7046 38.4961C16.704 38.4957 16.7033 38.4954 16.7027 38.495L16.0807 38.1218L15.9001 38.0134L15.6964 38.067ZM31.2836 26.3378L31.2712 26.3327L31.2586 26.3283C31.036 26.2509 30.7267 26.1433 30.4089 26.1786C30.0375 26.2199 29.7512 26.4347 29.5196 26.7615L29.5196 26.7615L29.5142 26.7694C29.1793 27.2618 28.2192 28.4075 27.9264 28.7421L27.9214 28.7478L27.9167 28.7535C27.8243 28.8657 27.7803 28.8703 27.7694 28.8715L27.7685 28.8716C27.7358 28.8754 27.6355 28.8709 27.4083 28.7528L27.4012 28.7491L27.394 28.7456C27.3108 28.7057 27.2045 28.6598 27.0775 28.6051C26.3574 28.2947 24.973 27.698 23.365 26.2611L23.3646 26.2607C21.8899 24.9455 20.9035 23.3231 20.5898 22.8003C20.543 22.7155 20.5306 22.6637 20.5273 22.6386C20.5245 22.6169 20.527 22.6057 20.531 22.5946C20.5366 22.579 20.5505 22.5513 20.5862 22.5063C20.6235 22.4595 20.6713 22.4099 20.7395 22.3416C20.9126 22.1685 21.1263 21.9103 21.3151 21.6823C21.395 21.5857 21.4705 21.4946 21.5364 21.4176C21.807 21.102 21.939 20.8359 22.0823 20.5473C22.0963 20.519 22.1105 20.4905 22.1249 20.4617L22.125 20.4617L22.1301 20.4509C22.3884 19.9019 22.243 19.4382 22.0832 19.1186C21.9702 18.8927 20.9392 16.3789 20.5169 15.3232L20.5169 15.3232L20.5142 15.3166C20.2825 14.7606 20.0034 14.4144 19.6468 14.2431C19.3689 14.1096 19.0475 14.1131 18.9474 14.1142C18.9335 14.1144 18.9239 14.1145 18.9192 14.1142L18.9026 14.113H18.886H17.886C17.4155 14.113 16.7317 14.2805 16.143 14.9204L16.1429 14.9203L16.1356 14.9286C16.1014 14.9675 16.0613 15.0114 16.0166 15.0604C15.4694 15.6601 14.2193 17.0301 14.2193 19.5714C14.2193 20.9549 14.7209 22.2868 15.2319 23.2926C15.7405 24.2939 16.2805 25.0141 16.4188 25.1985C16.4292 25.2133 16.4443 25.2355 16.4642 25.2646C16.9572 25.9868 20.3525 30.9605 25.4361 33.1547C26.6871 33.7059 27.664 34.0246 28.4238 34.2568C29.7538 34.6843 30.9631 34.6129 31.8926 34.4833L31.8956 34.4828C32.4904 34.3961 33.324 34.046 34.0522 33.5779C34.7668 33.1185 35.5076 32.4643 35.774 31.6965C36.0067 31.0529 36.1254 30.4538 36.1655 29.9751C36.1855 29.736 36.1867 29.5188 36.1696 29.3359C36.1549 29.1772 36.1207 28.9672 36.0161 28.8029C35.8727 28.5775 35.6645 28.4442 35.4803 28.3462C35.3724 28.2887 35.233 28.2243 35.0875 28.1571C35.0026 28.1178 34.9156 28.0776 34.8315 28.0373C34.713 27.9804 34.4773 27.8655 34.1804 27.7209C33.2282 27.2569 31.6468 26.4864 31.2836 26.3378Z" fill="#233AA1" stroke="#233AA1"/>
</g>
</svg>
