<svg width="30" height="25" viewBox="0 0 30 25" fill="none" xmlns="http://www.w3.org/2000/svg">
<g id="ep:arrow-up-bold">
<path id="Vector" d="M26.9325 8.2703C26.5809 7.97738 26.1041 7.81282 25.6069 7.81282C25.1097 7.81282 24.6329 7.97738 24.2813 8.2703L15 16.0047L5.71875 8.2703C5.36512 7.98568 4.89149 7.82819 4.39987 7.83175C3.90825 7.83531 3.43798 7.99963 3.09034 8.28933C2.7427 8.57903 2.54551 8.97093 2.54124 9.38061C2.53697 9.79029 2.72596 10.185 3.0675 10.4797L13.6744 19.3187C14.026 19.6117 14.5028 19.7762 15 19.7762C15.4972 19.7762 15.974 19.6117 16.3256 19.3187L26.9325 10.4797C27.284 10.1867 27.4815 9.7893 27.4815 9.37499C27.4815 8.96067 27.284 8.56331 26.9325 8.2703Z" fill="#1C2138"/>
</g>
</svg>
