<svg width="90" height="129" viewBox="0 0 90 129" fill="none" xmlns="http://www.w3.org/2000/svg">
<g id="ep:arrow-up-bold" clip-path="url(#clip0_52_2)">
<path id="Vector" d="M46.3384 20.981C45.4814 22.2499 45 23.9706 45 25.7647C45 27.5589 45.4814 29.2795 46.3384 30.5484L68.966 64.0408L46.3384 97.5333C45.5057 98.8094 45.045 100.519 45.0554 102.293C45.0658 104.067 45.5465 105.764 46.3941 107.018C47.2416 108.273 48.3881 108.984 49.5867 109C50.7853 109.015 51.94 108.333 52.8021 107.101L78.6616 68.8245C79.5186 67.5557 80 65.835 80 64.0408C80 62.2467 79.5186 60.526 78.6616 59.2572L52.8021 20.981C51.9449 19.7126 50.7824 19 49.5703 19C48.3581 19 47.1956 19.7126 46.3384 20.981Z" fill="#1C2138"/>
</g>
<defs>
<clipPath id="clip0_52_2">
<rect width="129" height="90" fill="white" transform="matrix(0 1 -1 0 90 0)"/>
</clipPath>
</defs>
</svg>
