<svg width="41" height="35" viewBox="0 0 41 35" fill="none" xmlns="http://www.w3.org/2000/svg">
<g id="mingcute:car-fill" clip-path="url(#clip0_11_48)">
<g id="Group">
<path id="Vector" fill-rule="evenodd" clip-rule="evenodd" d="M24.6526 5.52631C25.5149 5.52633 26.3601 5.75324 27.0936 6.18162C27.8271 6.60999 28.42 7.22291 28.8057 7.95171L30.9511 12.0053C31.3288 11.859 31.7003 11.701 32.0656 11.5313C32.4331 11.3579 32.8583 11.3295 33.2479 11.4524C33.6375 11.5753 33.9594 11.8394 34.1429 12.1867C34.3265 12.5339 34.3565 12.9358 34.2264 13.304C34.0964 13.6721 33.8169 13.9764 33.4495 14.1498C33.0774 14.3063 32.7033 14.4585 32.3272 14.6062L33.8148 17.4193C34.1377 18.0292 34.3057 18.7019 34.3055 19.3839V23.0805C34.3064 23.6981 34.169 24.3088 33.9022 24.8726C33.6354 25.4364 33.2453 25.9404 32.7575 26.3514V28.2005C32.7575 28.7824 32.5129 29.3405 32.0775 29.752C31.642 30.1635 31.0515 30.3947 30.4357 30.3947C29.8199 30.3947 29.2293 30.1635 28.7938 29.752C28.3584 29.3405 28.1138 28.7824 28.1138 28.2005V27.469H9.53865V28.2005C9.53865 28.7824 9.29402 29.3405 8.85858 29.752C8.42314 30.1635 7.83256 30.3947 7.21676 30.3947C6.60095 30.3947 6.01037 30.1635 5.57493 29.752C5.13949 29.3405 4.89487 28.7824 4.89487 28.2005V26.3514C3.94444 25.5468 3.34694 24.3795 3.34694 23.0805V19.3824C3.34723 18.7014 3.51522 18.0298 3.83763 17.4207L5.31281 14.6296C4.93976 14.4804 4.5698 14.3224 4.20604 14.1513C3.84047 13.9756 3.56258 13.6712 3.43228 13.3037C3.30198 12.9362 3.3297 12.535 3.50947 12.1867C3.60027 12.0147 3.72605 11.8613 3.87961 11.7352C4.03317 11.6092 4.2115 11.513 4.40442 11.4522C4.59734 11.3913 4.80106 11.367 5.00394 11.3805C5.20682 11.3941 5.40487 11.4453 5.58679 11.5313C5.9521 11.7025 6.32515 11.859 6.7013 12.0053L8.84672 7.95317C9.23223 7.2241 9.82496 6.61088 10.5585 6.18224C11.292 5.7536 12.1374 5.52647 12.9998 5.52631H24.6526ZM11.8605 18.6919C11.2447 18.6919 10.6542 18.9231 10.2187 19.3346C9.78327 19.7461 9.53865 20.3043 9.53865 20.8862C9.53865 21.4682 9.78327 22.0263 10.2187 22.4378C10.6542 22.8493 11.2447 23.0805 11.8605 23.0805C12.4763 23.0805 13.0669 22.8493 13.5024 22.4378C13.9378 22.0263 14.1824 21.4682 14.1824 20.8862C14.1824 20.3043 13.9378 19.7461 13.5024 19.3346C13.0669 18.9231 12.4763 18.6919 11.8605 18.6919ZM25.7919 18.6919C25.1761 18.6919 24.5855 18.9231 24.1501 19.3346C23.7146 19.7461 23.47 20.3043 23.47 20.8862C23.47 21.4682 23.7146 22.0263 24.1501 22.4378C24.5855 22.8493 25.1761 23.0805 25.7919 23.0805C26.4077 23.0805 26.9983 22.8493 27.4337 22.4378C27.8691 22.0263 28.1138 21.4682 28.1138 20.8862C28.1138 20.3043 27.8691 19.7461 27.4337 19.3346C26.9983 18.9231 26.4077 18.6919 25.7919 18.6919ZM24.6526 8.452H12.9998C12.745 8.45197 12.4942 8.51136 12.2695 8.62492C12.0449 8.73848 11.8533 8.90268 11.7119 9.10297L11.616 9.26096L9.6501 12.9737C12.0463 13.6524 15.2753 14.3034 18.8262 14.3034C22.1419 14.3034 25.1743 13.7358 27.5101 13.1082L28.0008 12.9737L26.0365 9.26096C25.9225 9.04565 25.7541 8.86024 25.5462 8.72116C25.3383 8.58209 25.0973 8.49366 24.8445 8.46371L24.6542 8.452H24.6526Z" fill="#1C2138"/>
</g>
</g>
<defs>
<clipPath id="clip0_11_48">
<rect width="41" height="35" fill="white"/>
</clipPath>
</defs>
</svg>
