<svg width="45" height="45" viewBox="0 0 45 45" fill="none" xmlns="http://www.w3.org/2000/svg">
<g id="ic:baseline-whatsapp">
<path id="Vector" d="M6.36331 38.0419L14.5785 35.8933C16.888 37.1269 19.4771 37.7823 22.1134 37.7823C30.893 37.7823 38.05 30.6628 38.05 21.9241C38.05 17.684 36.3933 13.6987 33.3864 10.7066C31.9118 9.22472 30.1556 8.04984 28.2201 7.2504C26.2846 6.45094 24.2085 6.04294 22.1129 6.05014C13.3335 6.05038 6.17668 13.1698 6.17668 21.9083C6.17668 24.6736 6.89808 27.3609 8.24761 29.7386L6.05892 37.734L5.94467 38.1514L6.36331 38.0419ZM14.927 32.5497L10.4072 33.7316L11.6065 29.3612L11.6361 29.2531L11.5751 29.1591L11.2604 28.6737C11.2601 28.6732 11.2598 28.6727 11.2595 28.6723C9.98357 26.6444 9.30612 24.3007 9.30432 21.9083C9.30432 14.8971 15.048 9.18039 22.0975 9.18039C25.5139 9.18039 28.7268 10.5087 31.1332 12.9185L31.1342 12.9195C32.3255 14.0995 33.2696 15.5029 33.9117 17.0484C34.5538 18.594 34.8812 20.2509 34.8749 21.9232L34.8749 21.9252C34.906 28.935 29.1635 34.6363 22.1134 34.6363C19.8158 34.6363 17.5645 34.0185 15.5925 32.86C15.5923 32.8598 15.592 32.8597 15.5918 32.8595L15.1184 32.5769L15.0284 32.5232L14.927 32.5497ZM26.6873 23.677L26.6874 23.6767L26.6748 23.6723C26.5012 23.6123 26.294 23.5427 26.0867 23.5656C25.8527 23.5915 25.6649 23.7251 25.5029 23.9526L25.5029 23.9526L25.5002 23.9565C25.2408 24.3361 24.5064 25.2076 24.2842 25.4602L24.2841 25.4602L24.2793 25.4659C24.194 25.569 24.1328 25.5955 24.0812 25.6014C24.0178 25.6087 23.9132 25.5916 23.732 25.4978L23.7321 25.4977L23.7249 25.4942C23.6637 25.465 23.5846 25.4311 23.4897 25.3905C22.944 25.1566 21.8722 24.6974 20.6333 23.5958L20.6331 23.5956C19.4952 22.5858 18.7369 21.3425 18.4989 20.9479C18.4168 20.8008 18.4294 20.7281 18.4446 20.686C18.4682 20.6209 18.5244 20.5558 18.6332 20.4476C18.7602 20.3212 18.915 20.1351 19.0567 19.9648C19.1188 19.8901 19.1783 19.8185 19.2319 19.7563C19.4267 19.5302 19.5205 19.3422 19.6295 19.1239C19.64 19.1028 19.6507 19.0814 19.6616 19.0596L19.6617 19.0596L19.6642 19.0542C19.8371 18.6886 19.7425 18.3817 19.63 18.1579C19.541 17.9809 18.7549 16.0734 18.4355 15.2789L18.4355 15.2789L18.4342 15.2756C18.2641 14.8693 18.0688 14.6405 17.8385 14.5304C17.6631 14.4465 17.4705 14.4462 17.3768 14.4461C17.3582 14.4461 17.3436 14.4461 17.3337 14.4454L17.3254 14.4449H17.3171H16.5573C16.2305 14.4449 15.748 14.5603 15.3291 15.0134L15.329 15.0134L15.3253 15.0175C15.299 15.0473 15.2684 15.0806 15.2344 15.1177C14.8216 15.568 13.9013 16.572 13.9013 18.4434C13.9013 19.4607 14.2727 20.4469 14.6568 21.1991C15.0387 21.9471 15.4443 22.4851 15.5473 22.6217L15.5481 22.6228C15.5562 22.6342 15.5682 22.6517 15.584 22.6748C15.9608 23.2235 18.5213 26.9527 22.3463 28.5952C23.2911 29.0094 24.0285 29.2487 24.6033 29.4235C25.5874 29.7384 26.484 29.6868 27.1814 29.59L27.1829 29.5897C27.61 29.5278 28.2256 29.2729 28.7697 28.9249C29.3067 28.5814 29.8385 28.1064 30.026 27.5676C30.1993 27.0911 30.2871 26.6488 30.3166 26.298C30.3314 26.1227 30.332 25.9662 30.3199 25.8371C30.3089 25.7201 30.2847 25.5876 30.2227 25.4906C30.1319 25.3486 29.9979 25.2608 29.864 25.1898C29.7847 25.1478 29.6855 25.1022 29.5781 25.0529C29.5128 25.0229 29.4445 24.9915 29.3759 24.9587C29.2835 24.9146 29.101 24.8261 28.872 24.7151C28.1478 24.364 26.9587 23.7875 26.6873 23.677Z" fill="#233AA1" stroke="#233AA1" stroke-width="0.5"/>
</g>
</svg>
